<svg xmlns="http://www.w3.org/2000/svg" viewBox="0 0 32 32" fill="none">
  <!-- hand-drawn rounded background -->
  <path d="M3.1 5.8Q2.9 2.1 6.4 2L25.6 2.2Q29.3 2 29.1 5.6L28.9 26.4Q29.2 30 25.6 30L6.4 29.8Q2.7 30 2.9 26.2Z"
        fill="#EEF2FF" stroke="#13227F" stroke-width="1.5" stroke-linejoin="round"/>

  <!-- bar 1 — short, slightly slanted for hand-drawn feel -->
  <path d="M5.5 26.6 L5.8 21.3 L8.6 21.1 L8.3 26.5 Z" fill="#13227F" opacity="0.78"/>

  <!-- bar 2 — tallest -->
  <path d="M11.4 26.6 L11.7 8.7 L14.5 8.5 L14.2 26.7 Z" fill="#13227F"/>

  <!-- bar 3 — medium -->
  <path d="M17.4 26.5 L17.7 13.1 L20.5 12.9 L20.2 26.6 Z" fill="#13227F" opacity="0.88"/>

  <!-- bar 4 — medium-short -->
  <path d="M23.3 26.5 L23.6 17.7 L26.4 17.5 L26.1 26.6 Z" fill="#13227F" opacity="0.75"/>

  <!-- baseline — slightly wobbly -->
  <path d="M4 27.2 C 8.5 26.6 19 27 28.5 26.5"
        stroke="#13227F" stroke-width="1.5" stroke-linecap="round"/>

  <!-- upward tick on tallest bar (trend arrow feel) -->
  <path d="M12.2 7.8 L13 5.5 L14.8 6.9"
        stroke="#13227F" stroke-width="1.2" stroke-linecap="round" stroke-linejoin="round"/>
</svg>
